<svg width="147" height="37" viewBox="0 0 147 37" fill="none" xmlns="http://www.w3.org/2000/svg">
<path fill-rule="evenodd" clip-rule="evenodd" d="M42.6692 19.9577C38.4782 21.6243 33.9233 18.417 28.3757 18.417C22.8281 18.417 18.2733 21.6243 14.0867 19.9577C6.23475 16.8134 1.95837 19.4861 1.42383 19.8724L2.2279 24.6114C2.2279 24.6114 6.3785 21.3592 14.5449 24.6474C18.5877 26.2645 22.9494 23.156 28.3757 23.156C33.8021 23.156 38.1548 26.2645 42.2066 24.6474C50.3775 21.3592 54.5281 24.6114 54.5281 24.6114L55.3321 19.8724C54.7796 19.4861 50.5212 16.7954 42.6692 19.9577Z" fill="#0055B9"/>
<path fill-rule="evenodd" clip-rule="evenodd" d="M41.9318 27.6839C37.9609 29.4313 33.6351 26.0713 28.375 26.0713C23.1149 26.0713 18.7936 29.4313 14.8182 27.6839C7.37049 24.3733 3.32771 27.1898 2.80664 27.5986L3.57027 32.5398C3.57027 32.5398 7.50525 29.1348 15.2494 32.5802C19.0946 34.2692 23.2227 31.017 28.3705 31.017C33.5183 31.017 37.6465 34.2692 41.4916 32.5802C49.2403 29.1348 53.1708 32.5398 53.1708 32.5398L53.9344 27.5986C53.4088 27.1898 49.3706 24.3733 41.9184 27.6839" fill="#0055B9"/>
<path fill-rule="evenodd" clip-rule="evenodd" d="M56.7562 11.6303L33.4967 11.5629L28.3804 0.943848L23.2595 11.5629L0 11.6303L19.4638 20.0932L15.147 29.4949L28.3804 23.5745L41.6093 29.4949L37.2925 20.0932L56.7562 11.6303Z" fill="#FF0000"/>
<path d="M73.6598 27.1411C73.6598 29.0697 73.2391 30.4922 72.3976 31.4085C71.3884 32.5495 69.93 33.12 68.0224 33.12C66.2076 33.12 64.8316 32.6528 63.8943 31.7185C62.924 30.7272 62.4104 29.2209 62.3535 27.1995H66.3379C66.3154 27.8189 66.4713 28.4316 66.7871 28.9649C66.9309 29.153 67.1188 29.3026 67.3343 29.4006C67.5498 29.4985 67.7862 29.5417 68.0224 29.5264C68.2374 29.537 68.452 29.4998 68.6508 29.4174C68.8497 29.3351 69.0278 29.2097 69.1723 29.0502C69.5092 28.6549 69.6754 27.9632 69.6754 26.9749C69.6754 25.9058 69.4883 25.1856 69.1139 24.8143C68.8064 24.5396 68.4028 24.3975 67.991 24.419H66.4772V21.05H67.964C68.1639 21.0651 68.3647 21.0382 68.5535 20.9709C68.7423 20.9036 68.9148 20.7974 69.06 20.6592C69.484 20.085 69.6836 19.3758 69.6215 18.6648C69.6717 17.9932 69.5031 17.3234 69.1409 16.7557C68.988 16.5982 68.8038 16.4745 68.6001 16.3927C68.3964 16.311 68.1778 16.2729 67.9585 16.2809C67.7392 16.289 67.5239 16.343 67.3268 16.4394C67.1297 16.5359 66.955 16.6727 66.8141 16.841C66.5189 17.3745 66.3643 17.9742 66.3649 18.5839H62.3805C62.3984 16.6763 62.9315 15.188 63.9796 14.1189C64.9319 13.1666 66.2795 12.6904 68.0224 12.6904C69.8551 12.6904 71.2671 13.2235 72.2583 14.2896C72.7313 14.7726 73.0864 15.3583 73.296 16.001C73.5258 16.8129 73.6303 17.6551 73.6059 18.4986C73.6607 19.5515 73.3532 20.5915 72.7345 21.4453C72.3641 21.9298 71.8957 22.3309 71.3599 22.6222C71.9023 22.9035 72.3797 23.2952 72.7614 23.7721C73.3634 24.4864 73.6598 25.6094 73.6598 27.1411Z" fill="#0055B9"/>
<path d="M87.8268 27.0269C87.8531 27.9522 87.7549 28.8768 87.5349 29.776C87.3371 30.453 86.9743 31.0704 86.4792 31.5728C85.6407 32.4532 84.2572 32.8934 82.3286 32.8934H76.543V12.9131H82.3286C84.2153 12.9131 85.6123 13.3398 86.5062 14.2023C86.979 14.645 87.3327 15.1995 87.5349 15.8149C87.7564 16.6435 87.8548 17.5001 87.8268 18.3574C87.8268 19.8727 87.463 20.9942 86.7353 21.7219C86.4645 21.9961 86.1503 22.2237 85.8054 22.3957C86.156 22.5699 86.4712 22.8074 86.7353 23.0964C87.463 23.8481 87.8268 25.1582 87.8268 27.0269ZM83.8559 18.6359C83.91 18.0569 83.7607 17.4771 83.4337 16.9963C83.1552 16.6684 82.6296 16.5022 81.8615 16.5022H80.5319V20.7696H81.848C82.5982 20.7696 83.1192 20.5989 83.4067 20.262C83.744 19.7901 83.9032 19.214 83.8559 18.6359ZM83.4067 28.7114C83.7551 28.1074 83.9117 27.4119 83.8559 26.7169C83.8559 25.7826 83.7077 25.1178 83.4067 24.727C83.1058 24.3362 82.5757 24.1385 81.8076 24.1385H80.5319V29.2998H81.7941C82.5802 29.2998 83.1192 29.1022 83.4067 28.7114Z" fill="#0055B9"/>
<path d="M99.956 32.8934H90.752V12.9131H99.956V16.5067H94.7364V21.0211H99.2283V24.6147H94.7364V29.3043H99.956V32.8934Z" fill="#0055B9"/>
<path d="M113.418 27.1411C113.418 29.0697 112.997 30.4922 112.156 31.4085C111.147 32.5495 109.687 33.12 107.776 33.12C105.962 33.12 104.587 32.6528 103.653 31.7185C102.676 30.7272 102.161 29.2209 102.107 27.1995H106.092C106.072 27.8186 106.227 28.4308 106.541 28.9649C106.688 29.1335 106.868 29.2702 107.07 29.3665C107.272 29.4628 107.492 29.5166 107.715 29.5246C107.939 29.5326 108.162 29.4946 108.37 29.413C108.578 29.3314 108.768 29.2079 108.926 29.0502C109.263 28.6549 109.434 27.9632 109.434 26.9749C109.434 25.9058 109.247 25.1856 108.872 24.8143C108.564 24.5404 108.161 24.3985 107.749 24.419H106.231V21.05H107.722C107.922 21.0654 108.122 21.0385 108.31 20.9711C108.498 20.9038 108.67 20.7975 108.814 20.6592C109.238 20.085 109.438 19.3758 109.375 18.6648C109.427 17.9937 109.26 17.3239 108.899 16.7557C108.746 16.5981 108.561 16.4744 108.357 16.3925C108.153 16.3107 107.934 16.2726 107.715 16.2806C107.495 16.2887 107.279 16.3427 107.082 16.4392C106.884 16.5358 106.709 16.6726 106.568 16.841C106.275 17.3753 106.12 17.9745 106.119 18.5839H102.134C102.152 16.6763 102.685 15.188 103.734 14.1189C104.689 13.1666 106.036 12.6904 107.776 12.6904C109.609 12.6904 111.021 13.2235 112.012 14.2896C112.488 14.7711 112.845 15.3572 113.054 16.001C113.28 16.8136 113.383 17.6555 113.36 18.4986C113.416 19.551 113.11 20.5909 112.493 21.4453C112.12 21.9289 111.65 22.3297 111.114 22.6222C111.657 22.9045 112.135 23.296 112.52 23.7721C113.119 24.4849 113.418 25.6079 113.418 27.1411Z" fill="#0055B9"/>
<path d="M130.982 36.0538H127.217V32.9094H119.275V36.0538H115.516V29.3159H116.863C118.001 26.2451 118.561 22.9908 118.516 19.7165V12.9111H129.225V29.3024H130.995L130.982 36.0538ZM125.227 29.3159V16.5047H122.361V20.7991C122.378 23.6946 121.895 26.5713 120.933 29.3024L125.227 29.3159Z" fill="#0055B9"/>
<path d="M147 32.8934H142.844L142.198 29.776H137.598L136.951 32.8934H132.818L137.957 12.9131H141.883L147 32.8934ZM141.443 26.1869L139.898 18.7751L138.352 26.1869H141.443Z" fill="#0055B9"/>
<path d="M66.4772 8.95767H65.736V7.8122H63.0902V8.95767H62.3535V7.11595H62.7578C63.1207 6.10798 63.2988 5.04278 63.2834 3.97156V1.38867H65.9786V7.12043H66.4817L66.4772 8.95767ZM65.1969 7.11595V2.08044H64.0335V4.13776C64.0525 5.15123 63.8897 6.1599 63.5529 7.11595H65.1969Z" fill="#0055B9"/>
<path d="M70.8701 7.81475H70.0481L69.7427 6.29645H68.2513L67.9459 7.81475H67.1328L68.6287 1.38672H69.3788L70.8701 7.81475ZM69.5989 5.61368L69.0015 2.65346L68.3951 5.61368H69.5989Z" fill="#0055B9"/>
<path d="M75.1194 7.81475H74.3467V2.08298H73.1878V4.9264C73.1927 5.36351 73.1657 5.8004 73.107 6.23357C73.0723 6.52382 73.0029 6.80885 72.9003 7.08255C72.83 7.26601 72.7159 7.42949 72.5679 7.5587C72.4495 7.65664 72.3117 7.72858 72.1636 7.76982C72.0087 7.80299 71.8504 7.81807 71.692 7.81475H71.4629V7.11849H71.5437C71.6633 7.12395 71.7827 7.10405 71.8941 7.0601C72.0069 6.99509 72.1013 6.90231 72.1681 6.79058C72.2891 6.57371 72.3612 6.33299 72.3793 6.08533C72.4318 5.66221 72.4543 5.23591 72.4466 4.80961V1.38672H75.1194V7.81475Z" fill="#0055B9"/>
<path d="M78.8745 4.49068C79.1232 4.93218 79.2539 5.43036 79.2539 5.9371C79.2539 6.44384 79.1232 6.94202 78.8745 7.38352C78.7286 7.53715 78.5509 7.65698 78.3538 7.73458C78.1567 7.81218 77.945 7.84568 77.7335 7.83272H76.2871V1.38672H77.0642V4.08191H77.7335C77.9436 4.06545 78.1548 4.09467 78.3525 4.16756C78.5502 4.24045 78.7299 4.35527 78.879 4.50416L78.8745 4.49068ZM78.295 6.85795C78.4395 6.58169 78.5033 6.27037 78.4792 5.95956C78.5048 5.64865 78.4409 5.33692 78.295 5.06116C78.2314 4.97044 78.1455 4.8976 78.0456 4.84962C77.9457 4.80164 77.8351 4.78013 77.7245 4.78715H77.0642V7.14545H77.7245C77.8353 7.15335 77.9461 7.13224 78.0462 7.08418C78.1462 7.03613 78.232 6.96279 78.295 6.87143" fill="#0055B9"/>
<path d="M83.2145 7.81475H82.4374V4.89944H81.0134V7.81475H80.2363V1.38672H81.0134V4.19421H82.4374V1.38672H83.2145V7.81475Z" fill="#0055B9"/>
<path d="M86.861 7.81475H84.377V1.38672H86.861V2.08297H85.1541V4.23912H86.6229V4.93538H85.1541V7.11848H86.861V7.81475Z" fill="#0055B9"/>
<path d="M90.818 6.00559C90.8278 6.30055 90.7961 6.59541 90.7237 6.88152C90.6615 7.08491 90.5505 7.26998 90.4003 7.42056C90.24 7.56222 90.0527 7.66989 89.8496 7.73706C89.6466 7.80424 89.432 7.82951 89.2189 7.81136H87.8398V1.38333H89.2189C89.4302 1.36581 89.6429 1.39099 89.8443 1.45736C90.0458 1.52373 90.2318 1.62993 90.3913 1.76965C90.5295 1.91081 90.6312 2.08348 90.6878 2.27275C90.7517 2.53428 90.7804 2.80319 90.7731 3.07232C90.7907 3.27918 90.7659 3.48743 90.7002 3.68438C90.6346 3.88132 90.5294 4.06282 90.3913 4.21778C90.2895 4.32252 90.1672 4.40511 90.0319 4.46035C90.1809 4.50446 90.3167 4.58469 90.4272 4.69392C90.5792 4.8398 90.688 5.02477 90.7417 5.22847C90.797 5.48369 90.8227 5.74447 90.818 6.00559ZM89.996 3.10825C90.0227 2.82824 89.9564 2.54724 89.8073 2.30868C89.7271 2.22615 89.6293 2.16271 89.5212 2.12306C89.4131 2.0834 89.2975 2.06856 89.1829 2.0796H88.6125V4.13692H89.1829C89.2972 4.14622 89.4121 4.12918 89.5188 4.08713C89.6255 4.04508 89.7211 3.97913 89.7984 3.89435C89.9483 3.66091 90.0177 3.38483 89.996 3.10825ZM90.0409 5.96067C90.0692 5.64627 89.9952 5.33115 89.8298 5.06227C89.7492 4.96911 89.6479 4.89618 89.534 4.84936C89.4201 4.80255 89.2968 4.78316 89.174 4.79275H88.6125V7.10163H89.174C89.2963 7.1122 89.4194 7.09461 89.5338 7.05023C89.6483 7.00585 89.7511 6.93584 89.8343 6.84559C89.9984 6.5763 90.0709 6.26111 90.0409 5.94719" fill="#0055B9"/>
<path d="M94.813 2.6577C94.9268 3.94739 94.9268 5.2446 94.813 6.53428C94.7739 6.85812 94.6395 7.16303 94.4266 7.41023C94.2848 7.55946 94.1141 7.67829 93.9249 7.75949C93.7357 7.84069 93.532 7.88255 93.3261 7.88255C93.1202 7.88255 92.9165 7.84069 92.7273 7.75949C92.5381 7.67829 92.3674 7.55946 92.2256 7.41023C92.0144 7.16203 91.8801 6.85762 91.8393 6.53428C91.7255 5.2446 91.7255 3.94739 91.8393 2.6577C91.8777 2.32697 92.0119 2.01468 92.2256 1.7593C92.3684 1.61178 92.5394 1.49447 92.7285 1.41436C92.9175 1.33424 93.1208 1.29297 93.3261 1.29297C93.5314 1.29297 93.7347 1.33424 93.9237 1.41436C94.1128 1.49447 94.2838 1.61178 94.4266 1.7593C94.6421 2.01354 94.7767 2.32641 94.813 2.6577ZM94.0673 6.25129C94.1032 5.93685 94.1212 5.38883 94.1212 4.60274C94.1212 3.81664 94.1212 3.25514 94.0673 2.95417C94.0539 2.70786 93.9799 2.46868 93.8517 2.25792C93.7872 2.18058 93.7065 2.11835 93.6153 2.07565C93.524 2.03295 93.4246 2.01083 93.3239 2.01083C93.2232 2.01083 93.1237 2.03295 93.0325 2.07565C92.9413 2.11835 92.8606 2.18058 92.7961 2.25792C92.6659 2.4678 92.5917 2.70749 92.5804 2.95417C92.549 3.26412 92.531 3.81664 92.531 4.60274C92.531 5.38883 92.531 5.95033 92.5804 6.25578C92.5925 6.50233 92.6666 6.74183 92.7961 6.95204C92.8614 7.02801 92.9424 7.08898 93.0335 7.13078C93.1246 7.17258 93.2236 7.19421 93.3239 7.19421C93.4241 7.19421 93.5231 7.17258 93.6142 7.13078C93.7053 7.08898 93.7863 7.02801 93.8517 6.95204C93.9797 6.73957 94.0537 6.49898 94.0673 6.25129Z" fill="#0055B9"/>
<path d="M98.8768 6.22106C98.8892 6.46156 98.8522 6.70204 98.768 6.92765C98.6838 7.15326 98.5542 7.3592 98.3872 7.53273C98.1123 7.77046 97.7577 7.8956 97.3945 7.8831C97.1873 7.89259 96.9807 7.85509 96.7901 7.77341C96.5996 7.69173 96.4299 7.56799 96.2939 7.41145C96.0787 7.1566 95.9428 6.84427 95.9031 6.51305C95.7953 5.22611 95.7953 3.93239 95.9031 2.64545C95.9436 2.31444 96.0793 2.00231 96.2939 1.74705C96.4321 1.59459 96.6026 1.47508 96.7931 1.39733C96.9836 1.31959 97.1891 1.28559 97.3945 1.29785C97.5809 1.29041 97.767 1.31991 97.942 1.38467C98.117 1.44943 98.2775 1.54816 98.4141 1.67518C98.5689 1.84718 98.6882 2.04798 98.7652 2.26611C98.8423 2.48423 98.8756 2.7154 98.8633 2.94642H98.0952C98.1044 2.68817 98.0321 2.43358 97.8886 2.21872C97.8245 2.14379 97.7449 2.08363 97.6554 2.04239C97.5658 2.00114 97.4684 1.97979 97.3697 1.97979C97.2711 1.97979 97.1737 2.00114 97.0842 2.04239C96.9946 2.08363 96.915 2.14379 96.8509 2.21872C96.7213 2.42719 96.6471 2.66529 96.6353 2.91047C96.6039 3.22491 96.5859 3.77744 96.5859 4.56353C96.5859 5.34963 96.5859 5.91113 96.6353 6.21658C96.649 6.48145 96.7344 6.73763 96.8824 6.95776C96.9473 7.03136 97.0271 7.09032 97.1166 7.1307C97.206 7.17108 97.3031 7.19196 97.4012 7.19196C97.4993 7.19196 97.5964 7.17108 97.6858 7.1307C97.7753 7.09032 97.8551 7.03136 97.92 6.95776C98.0595 6.73603 98.1313 6.47847 98.1266 6.21658L98.8768 6.22106Z" fill="#0055B9"/>
<path d="M102.521 2.08297H101.443V7.81475H100.67V2.08297H99.5879V1.38672H102.521V2.08297Z" fill="#0055B9"/>
<path d="M106.29 2.6577C106.403 3.94739 106.403 5.2446 106.29 6.53428C106.25 6.85812 106.116 7.16303 105.903 7.41023C105.761 7.55946 105.591 7.67829 105.401 7.75949C105.212 7.84069 105.009 7.88255 104.803 7.88255C104.597 7.88255 104.393 7.84069 104.204 7.75949C104.015 7.67829 103.844 7.55946 103.702 7.41023C103.491 7.16203 103.357 6.85762 103.316 6.53428C103.202 5.2446 103.202 3.94739 103.316 2.6577C103.354 2.32697 103.488 2.01468 103.702 1.7593C103.845 1.61178 104.016 1.49447 104.205 1.41436C104.394 1.33424 104.597 1.29297 104.803 1.29297C105.008 1.29297 105.211 1.33424 105.4 1.41436C105.589 1.49447 105.76 1.61178 105.903 1.7593C106.119 2.01354 106.253 2.32641 106.29 2.6577ZM105.544 6.25129C105.58 5.93685 105.598 5.38883 105.598 4.60274C105.598 3.81664 105.598 3.25514 105.544 2.95417C105.53 2.70786 105.456 2.46868 105.328 2.25792C105.267 2.17696 105.188 2.1121 105.096 2.06903C105.005 2.02596 104.904 2.00599 104.803 2.01085C104.7 2.00567 104.598 2.02545 104.505 2.06848C104.412 2.11152 104.331 2.17653 104.268 2.25792C104.142 2.46917 104.069 2.70828 104.057 2.95417C104.026 3.26412 104.008 3.81664 104.008 4.60274C104.008 5.38883 104.008 5.95033 104.057 6.25578C104.07 6.50155 104.142 6.74049 104.268 6.95204C104.331 7.03289 104.412 7.09724 104.505 7.13951C104.599 7.18178 104.701 7.2007 104.803 7.19461C104.903 7.20038 105.004 7.18128 105.096 7.13898C105.187 7.09668 105.267 7.03247 105.328 6.95204C105.456 6.73957 105.53 6.49898 105.544 6.25129Z" fill="#0055B9"/>
<path d="M110.295 7.81475H109.518V5.50138C109.252 5.54422 108.983 5.56526 108.714 5.56427C108.531 5.57963 108.347 5.55855 108.172 5.50227C107.997 5.44599 107.834 5.35561 107.695 5.23635C107.437 4.91829 107.316 4.51138 107.358 4.10438V1.38672H108.135V4.02351C108.11 4.25845 108.17 4.49458 108.305 4.68833C108.376 4.75354 108.459 4.80355 108.549 4.83524C108.639 4.86693 108.735 4.87962 108.831 4.8725C109.061 4.87174 109.291 4.85372 109.518 4.8186V1.38672H110.295V7.81475Z" fill="#0055B9"/>
<path d="M114.438 7.81475H113.661V4.89944H112.232V7.81475H111.455V1.38672H112.232V4.19421H113.661V1.38672H114.438V7.81475Z" fill="#0055B9"/>
<path d="M118.189 4.48639C118.438 4.92871 118.568 5.42761 118.568 5.93506C118.568 6.4425 118.438 6.94141 118.189 7.38373C118.041 7.53257 117.862 7.64773 117.665 7.72136C117.468 7.795 117.258 7.82538 117.048 7.81046H115.602V1.38243H116.379V4.07762H117.048C117.258 4.06146 117.469 4.09081 117.667 4.16368C117.865 4.23655 118.044 4.35123 118.193 4.49986L118.189 4.48639ZM117.609 6.85366C117.753 6.57723 117.817 6.26604 117.794 5.95526C117.819 5.64436 117.755 5.33263 117.609 5.05687C117.546 4.96515 117.459 4.89164 117.358 4.84359C117.258 4.79554 117.146 4.7746 117.035 4.78286H116.379V7.14115H117.035C117.146 7.14941 117.258 7.12848 117.358 7.08043C117.459 7.03237 117.546 6.95886 117.609 6.86714V6.85366ZM119.936 7.83741H119.159V1.37793H119.936V7.83741Z" fill="#0055B9"/>
<path d="M124.158 7.81155H123.385V3.36449L121.813 7.82503H121.09V1.38353H121.867V5.87551L123.448 1.38353H124.162L124.158 7.81155ZM123.74 0C123.715 0.272407 123.59 0.52572 123.388 0.71018C123.186 0.89464 122.922 0.996906 122.649 0.996906C122.375 0.996906 122.111 0.89464 121.909 0.71018C121.707 0.52572 121.582 0.272407 121.557 0H122.114C122.131 0.129843 122.194 0.249099 122.293 0.335514C122.391 0.421929 122.518 0.469583 122.649 0.469583C122.779 0.469583 122.906 0.421929 123.004 0.335514C123.103 0.249099 123.166 0.129843 123.183 0H123.74Z" fill="#0055B9"/>
<path d="M129.954 6.06139C129.96 6.33669 129.93 6.61163 129.864 6.87893C129.802 7.08893 129.691 7.2813 129.54 7.44043C129.4 7.58945 129.227 7.70511 129.036 7.77895C128.845 7.85278 128.64 7.88292 128.435 7.86716C128.057 7.89188 127.684 7.76593 127.398 7.51679C127.24 7.3388 127.118 7.1312 127.041 6.90603C126.964 6.68087 126.933 6.44262 126.948 6.20514H127.725C127.704 6.47863 127.781 6.7508 127.941 6.97326C128.004 7.04032 128.081 7.09278 128.166 7.12693C128.252 7.16108 128.343 7.17609 128.435 7.17091C128.529 7.17717 128.623 7.1627 128.711 7.12855C128.799 7.0944 128.878 7.04138 128.943 6.97326C129.124 6.69567 129.207 6.36478 129.176 6.03444C129.212 5.6955 129.123 5.35521 128.925 5.07764C128.862 5.01509 128.787 4.96609 128.704 4.93365C128.621 4.90121 128.533 4.88601 128.444 4.88899H127.932V4.21967H128.444C128.527 4.22189 128.61 4.2071 128.687 4.1762C128.765 4.14531 128.835 4.09895 128.893 4.04C129.081 3.76816 129.167 3.43897 129.136 3.11015C129.171 2.78762 129.095 2.46286 128.92 2.1893C128.857 2.12132 128.78 2.06799 128.693 2.03308C128.607 1.99816 128.515 1.98249 128.422 1.98716C128.331 1.98325 128.241 1.99934 128.157 2.03427C128.073 2.0692 127.998 2.12213 127.937 2.1893C127.769 2.40691 127.689 2.67928 127.712 2.95293H126.935C126.917 2.48743 127.078 2.03275 127.384 1.6817C127.683 1.42641 128.063 1.28613 128.455 1.28613C128.848 1.28613 129.228 1.42641 129.527 1.6817C129.685 1.83689 129.797 2.03279 129.85 2.2477C129.91 2.51595 129.937 2.79045 129.931 3.06523C129.957 3.4523 129.86 3.83765 129.653 4.16577C129.53 4.31385 129.377 4.43342 129.203 4.51614C129.375 4.59931 129.528 4.71705 129.653 4.86202C129.881 5.21137 129.986 5.6275 129.949 6.04342" fill="#0055B9"/>
<path d="M134.319 7.81475H133.501L133.191 6.29645H131.704L131.394 7.81475H130.572L132.073 1.38672H132.818L134.319 7.81475ZM133.047 5.61368L132.45 2.65346L131.848 5.61368H133.047Z" fill="#0055B9"/>
<path d="M138.119 6.00537C138.129 6.30033 138.097 6.59519 138.024 6.8813C137.962 7.08353 137.853 7.2682 137.706 7.42034C137.544 7.56213 137.356 7.66984 137.153 7.73701C136.949 7.80417 136.733 7.82939 136.52 7.81114H135.141V1.38311H136.52C136.732 1.366 136.945 1.39135 137.147 1.45769C137.349 1.52402 137.536 1.63001 137.697 1.76943C137.832 1.91201 137.932 2.08432 137.989 2.27253C138.055 2.53367 138.083 2.80288 138.074 3.0721C138.091 3.27858 138.066 3.48638 138.002 3.68316C137.937 3.87994 137.833 4.06167 137.697 4.21755C137.592 4.32147 137.469 4.40389 137.333 4.46012C137.483 4.50523 137.62 4.58528 137.733 4.6937C137.883 4.83984 137.99 5.02486 138.042 5.22825C138.098 5.48347 138.123 5.74425 138.119 6.00537ZM137.31 3.10803C137.337 2.82802 137.271 2.54702 137.122 2.30846C137.041 2.22593 136.944 2.16249 136.835 2.12283C136.727 2.08318 136.612 2.06833 136.497 2.07938H135.918V4.1367H136.484C136.598 4.14599 136.713 4.12896 136.82 4.08691C136.926 4.04486 137.022 3.97891 137.099 3.89413C137.249 3.66068 137.318 3.38461 137.297 3.10803H137.31ZM137.342 5.96045C137.37 5.64605 137.296 5.33093 137.131 5.06205C137.05 4.96889 136.949 4.89596 136.835 4.84914C136.721 4.80233 136.598 4.78293 136.475 4.79253H135.918V7.10141H136.475C136.597 7.11197 136.72 7.09439 136.835 7.05001C136.949 7.00562 137.052 6.93562 137.135 6.84537C137.299 6.57608 137.372 6.26089 137.342 5.94697" fill="#0055B9"/>
<path d="M142.113 2.6577C142.227 3.94739 142.227 5.2446 142.113 6.53428C142.074 6.85812 141.94 7.16303 141.727 7.41023C141.585 7.55946 141.414 7.67829 141.225 7.75949C141.036 7.84069 140.832 7.88255 140.626 7.88255C140.42 7.88255 140.217 7.84069 140.027 7.75949C139.838 7.67829 139.668 7.55946 139.526 7.41023C139.314 7.16263 139.181 6.8577 139.144 6.53428C139.03 5.2446 139.03 3.94739 139.144 2.6577C139.179 2.32691 139.312 2.01409 139.526 1.7593C139.669 1.61178 139.84 1.49447 140.029 1.41436C140.218 1.33424 140.421 1.29297 140.626 1.29297C140.832 1.29297 141.035 1.33424 141.224 1.41436C141.413 1.49447 141.584 1.61178 141.727 1.7593C141.942 2.01354 142.077 2.32641 142.113 2.6577ZM141.367 6.25129C141.403 5.93685 141.421 5.38883 141.421 4.60274C141.421 3.81664 141.421 3.25514 141.367 2.95417C141.354 2.70786 141.28 2.46868 141.152 2.25792C141.087 2.18058 141.007 2.11835 140.915 2.07565C140.824 2.03295 140.725 2.01083 140.624 2.01083C140.523 2.01083 140.424 2.03295 140.333 2.07565C140.241 2.11835 140.161 2.18058 140.096 2.25792C139.968 2.46868 139.894 2.70786 139.881 2.95417C139.849 3.26412 139.831 3.81664 139.831 4.60274C139.831 5.38883 139.831 5.95033 139.881 6.25578C139.895 6.50197 139.969 6.74097 140.096 6.95204C140.162 7.02801 140.243 7.08898 140.334 7.13078C140.425 7.17258 140.524 7.19421 140.624 7.19421C140.724 7.19421 140.823 7.17258 140.914 7.13078C141.005 7.08898 141.086 7.02801 141.152 6.95204C141.28 6.73957 141.354 6.49898 141.367 6.25129Z" fill="#0055B9"/>
<path d="M146.999 8.95767H146.258V7.8122H143.599V8.95767H142.857V7.11595H143.266C143.625 6.10713 143.802 5.04234 143.787 3.97156V1.38867H146.482V7.12043H146.99L146.999 8.95767ZM145.714 7.11595V2.08044H144.551V4.13776C144.57 5.15123 144.407 6.1599 144.07 7.11595H145.714Z" fill="#0055B9"/>
</svg>
