<svg width="170" height="42" viewBox="0 0 170 42" fill="none" xmlns="http://www.w3.org/2000/svg">
<path fill-rule="evenodd" clip-rule="evenodd" d="M49.3452 23.335C44.4985 25.2623 39.2309 21.5532 32.8153 21.5532C26.3998 21.5532 21.1322 25.2623 16.2907 23.335C7.21013 19.6987 2.26467 22.7896 1.64648 23.2363L2.57636 28.7169C2.57636 28.7169 7.37637 24.9558 16.8205 28.7584C21.4959 30.6286 26.54 27.0337 32.8153 27.0337C39.0907 27.0337 44.1244 30.6286 48.8102 28.7584C58.2595 24.9558 63.0595 28.7169 63.0595 28.7169L63.9894 23.2363C63.3504 22.7896 58.4258 19.6779 49.3452 23.335Z" fill="#0055B9"/>
<path fill-rule="evenodd" clip-rule="evenodd" d="M48.4929 32.2712C43.9007 34.292 38.8981 30.4062 32.8149 30.4062C26.7318 30.4062 21.7344 34.292 17.137 32.2712C8.52401 28.4426 3.84869 31.6998 3.24609 32.1725L4.1292 37.8868C4.1292 37.8868 8.67985 33.9491 17.6357 37.9335C22.0825 39.8868 26.8565 36.1257 32.8098 36.1257C38.763 36.1257 43.537 39.8868 47.9838 37.9335C56.9448 33.9491 61.4903 37.8868 61.4903 37.8868L62.3734 32.1725C61.7656 31.6998 57.0955 28.4426 48.4773 32.2712" fill="#0055B9"/>
<path fill-rule="evenodd" clip-rule="evenodd" d="M65.6364 13.7042L38.7377 13.6262L32.8208 1.3457L26.8987 13.6262L0 13.7042L22.5091 23.4912L17.5169 34.3639L32.8208 27.5172L48.1195 34.3639L43.1273 23.4912L65.6364 13.7042Z" fill="#FF0000"/>
<path d="M85.1847 31.6426C85.1847 33.8729 84.6981 35.5179 83.725 36.5777C82.5579 37.8972 80.8713 38.5569 78.6652 38.5569C76.5665 38.5569 74.9752 38.0166 73.8912 36.9361C72.7691 35.7898 72.1752 34.0478 72.1094 31.7101H76.7172C76.6912 32.4264 76.8715 33.135 77.2366 33.7517C77.4029 33.9692 77.6203 34.1423 77.8695 34.2555C78.1187 34.3688 78.392 34.4188 78.6652 34.401C78.9138 34.4133 79.162 34.3703 79.392 34.2751C79.6219 34.1798 79.8279 34.0348 79.9951 33.8504C80.3847 33.3933 80.5769 32.5933 80.5769 31.4504C80.5769 30.214 80.3605 29.3811 79.9276 28.9517C79.5719 28.634 79.1051 28.4697 78.6289 28.4945H76.8782V24.5984H78.5977C78.8288 24.6159 79.0611 24.5848 79.2794 24.5069C79.4977 24.4291 79.6973 24.3063 79.8652 24.1465C80.3555 23.4825 80.5864 22.6623 80.5146 21.84C80.5726 21.0633 80.3776 20.2888 79.9587 19.6322C79.7819 19.4501 79.5689 19.3071 79.3333 19.2125C79.0978 19.1179 78.845 19.0739 78.5913 19.0832C78.3377 19.0925 78.0888 19.1549 77.8608 19.2665C77.6328 19.3781 77.4308 19.5363 77.2678 19.7309C76.9265 20.3478 76.7477 21.0414 76.7483 21.7465H72.1405C72.1613 19.5404 72.7778 17.8192 73.9899 16.5829C75.0912 15.4816 76.6496 14.9309 78.6652 14.9309C80.7847 14.9309 82.4176 15.5474 83.5639 16.7803C84.1109 17.3389 84.5215 18.0162 84.7639 18.7595C85.0297 19.6984 85.1505 20.6724 85.1224 21.6478C85.1857 22.8655 84.8301 24.0682 84.1146 25.0556C83.6862 25.6159 83.1446 26.0797 82.525 26.4166C83.1521 26.7419 83.7043 27.1949 84.1457 27.7465C84.8418 28.5725 85.1847 29.8712 85.1847 31.6426Z" fill="#0055B9"/>
<path d="M101.569 31.5108C101.599 32.5809 101.486 33.6502 101.231 34.69C101.002 35.473 100.583 36.187 100.01 36.7679C99.0407 37.7861 97.4408 38.2952 95.2104 38.2952H88.5195V15.1887H95.2104C97.3923 15.1887 99.0078 15.6822 100.042 16.6796C100.588 17.1916 100.997 17.8329 101.231 18.5446C101.487 19.5028 101.601 20.4935 101.569 21.4848C101.569 23.2372 101.148 24.5342 100.307 25.3757C99.9934 25.6928 99.6301 25.9561 99.2312 26.155C99.6366 26.3564 100.001 26.6312 100.307 26.9653C101.148 27.8346 101.569 29.3498 101.569 31.5108ZM96.9767 21.8069C97.0392 21.1373 96.8665 20.4669 96.4884 19.9108C96.1663 19.5316 95.5585 19.3394 94.6702 19.3394H93.1325V24.2744H94.6546C95.5221 24.2744 96.1247 24.077 96.4572 23.6874C96.8473 23.1417 97.0313 22.4754 96.9767 21.8069ZM96.4572 33.4589C96.86 32.7604 97.0412 31.9561 96.9767 31.1524C96.9767 30.0718 96.8053 29.303 96.4572 28.8511C96.1091 28.3991 95.4962 28.1705 94.6078 28.1705H93.1325V34.1394H94.5923C95.5014 34.1394 96.1247 33.9108 96.4572 33.4589Z" fill="#0055B9"/>
<path d="M115.595 38.2952H104.951V15.1887H115.595V19.3446H109.559V24.5654H114.754V28.7212H109.559V34.1446H115.595V38.2952Z" fill="#0055B9"/>
<path d="M131.165 31.6426C131.165 33.8729 130.678 35.5179 129.705 36.5777C128.538 37.8972 126.849 38.5569 124.64 38.5569C122.541 38.5569 120.952 38.0166 119.871 36.9361C118.742 35.7898 118.146 34.0478 118.084 31.7101H122.692C122.668 32.4261 122.848 33.134 123.211 33.7517C123.381 33.9467 123.589 34.1048 123.823 34.2162C124.057 34.3275 124.311 34.3897 124.569 34.399C124.828 34.4082 125.085 34.3643 125.326 34.27C125.567 34.1756 125.786 34.0328 125.97 33.8504C126.359 33.3933 126.557 32.5933 126.557 31.4504C126.557 30.214 126.34 29.3811 125.907 28.9517C125.551 28.635 125.085 28.4708 124.609 28.4945H122.853V24.5984H124.577C124.808 24.6162 125.039 24.5851 125.257 24.5072C125.474 24.4293 125.673 24.3064 125.84 24.1465C126.33 23.4825 126.561 22.6623 126.489 21.84C126.549 21.0639 126.356 20.2894 125.939 19.6322C125.761 19.4499 125.548 19.3069 125.312 19.2123C125.076 19.1176 124.823 19.0735 124.569 19.0828C124.314 19.0921 124.065 19.1546 123.837 19.2662C123.608 19.3779 123.406 19.5362 123.242 19.7309C122.903 20.3487 122.725 21.0418 122.723 21.7465H118.115C118.136 19.5404 118.752 17.8192 119.965 16.5829C121.069 15.4816 122.628 14.9309 124.64 14.9309C126.759 14.9309 128.392 15.5474 129.539 16.7803C130.089 17.3372 130.502 18.0149 130.744 18.7595C131.005 19.6992 131.124 20.6728 131.097 21.6478C131.162 22.8649 130.808 24.0675 130.094 25.0556C129.663 25.6149 129.12 26.0784 128.5 26.4166C129.127 26.7431 129.681 27.1958 130.126 27.7465C130.818 28.5707 131.165 29.8694 131.165 31.6426Z" fill="#0055B9"/>
<path d="M151.476 41.9472H147.122V38.3109H137.938V41.9472H133.59V34.155H135.148C136.464 30.6039 137.112 26.8403 137.06 23.0537V15.1836H149.444V34.1394H151.491L151.476 41.9472ZM144.821 34.155V19.3394H141.507V24.3057C141.526 27.6542 140.967 30.981 139.855 34.1394L144.821 34.155Z" fill="#0055B9"/>
<path d="M170 38.2952H165.194L164.446 34.69H159.127L158.379 38.2952H153.6L159.542 15.1887H164.083L170 38.2952ZM163.574 30.5394L161.787 21.9679L160 30.5394H163.574Z" fill="#0055B9"/>
<path d="M76.8782 10.6151H76.0211V9.29039H72.9613V10.6151H72.1094V8.4852H72.5769C72.9966 7.31952 73.2025 6.08765 73.1847 4.84883V1.86182H76.3016V8.49038H76.8834L76.8782 10.6151ZM75.3977 8.4852V2.66182H74.0522V5.04104C74.0742 6.21307 73.8859 7.37956 73.4964 8.4852H75.3977Z" fill="#0055B9"/>
<path d="M81.9588 9.29046H81.0082L80.6549 7.53461H78.9302L78.577 9.29046H77.6367L79.3666 1.85669H80.2341L81.9588 9.29046ZM80.4887 6.74501L79.7978 3.32163L79.0965 6.74501H80.4887Z" fill="#0055B9"/>
<path d="M86.8731 9.29046H85.9796V2.66189H84.6393V5.9502C84.645 6.4557 84.6137 6.96094 84.5458 7.46189C84.5058 7.79755 84.4255 8.12717 84.3069 8.4437C84.2256 8.65587 84.0936 8.84492 83.9224 8.99435C83.7855 9.10762 83.6262 9.19081 83.4549 9.23851C83.2757 9.27686 83.0927 9.2943 82.9095 9.29046H82.6445V8.48527H82.738C82.8763 8.49158 83.0144 8.46857 83.1432 8.41774C83.2737 8.34256 83.3828 8.23526 83.4601 8.10604C83.6 7.85524 83.6833 7.57687 83.7043 7.29045C83.765 6.80114 83.7911 6.30813 83.7822 5.81513V1.85669H86.8731V9.29046Z" fill="#0055B9"/>
<path d="M91.2149 5.4463C91.5025 5.95688 91.6536 6.533 91.6536 7.11903C91.6536 7.70506 91.5025 8.28119 91.2149 8.79176C91.0462 8.96943 90.8407 9.10801 90.6127 9.19775C90.3847 9.2875 90.1399 9.32623 89.8954 9.31124H88.2227V1.85669H89.1214V4.97358H89.8954C90.1383 4.95454 90.3826 4.98833 90.6112 5.07263C90.8399 5.15692 91.0476 5.28971 91.2201 5.46189L91.2149 5.4463ZM90.5447 8.18396C90.7118 7.86447 90.7856 7.50444 90.7577 7.145C90.7873 6.78545 90.7134 6.42495 90.5447 6.10604C90.4711 6.00113 90.3718 5.9169 90.2563 5.86141C90.1407 5.80592 90.0129 5.78104 89.885 5.78916H89.1214V8.51644H89.885C90.013 8.52559 90.1412 8.50117 90.2569 8.44559C90.3726 8.39002 90.4718 8.3052 90.5447 8.19955" fill="#0055B9"/>
<path d="M96.2332 9.29046H95.3345V5.91902H93.6878V9.29046H92.7891V1.85669H93.6878V5.10345H95.3345V1.85669H96.2332V9.29046Z" fill="#0055B9"/>
<path d="M100.451 9.29046H97.5781V1.85669H100.451V2.66188H98.4768V5.15538H100.176V5.96059H98.4768V8.48526H100.451V9.29046Z" fill="#0055B9"/>
<path d="M105.028 7.20059C105.039 7.5417 105.003 7.8827 104.919 8.21357C104.847 8.44878 104.719 8.66281 104.545 8.83695C104.36 9.00077 104.143 9.12529 103.908 9.20297C103.673 9.28066 103.425 9.30989 103.179 9.2889H101.584V1.85513H103.179C103.423 1.83487 103.669 1.86398 103.902 1.94073C104.135 2.01748 104.35 2.14031 104.535 2.30189C104.694 2.46514 104.812 2.66482 104.877 2.88371C104.951 3.18615 104.985 3.49713 104.976 3.80838C104.996 4.0476 104.968 4.28844 104.892 4.5162C104.816 4.74396 104.694 4.95385 104.535 5.13305C104.417 5.25419 104.275 5.3497 104.119 5.41357C104.291 5.46459 104.448 5.55738 104.576 5.6837C104.752 5.8524 104.878 6.0663 104.94 6.30188C105.004 6.59704 105.034 6.89862 105.028 7.20059ZM104.078 3.84993C104.108 3.52611 104.032 3.20114 103.859 2.92526C103.767 2.82981 103.653 2.75645 103.528 2.71059C103.403 2.66473 103.27 2.64756 103.137 2.66033H102.477V5.03955H103.137C103.269 5.0503 103.402 5.0306 103.526 4.98197C103.649 4.93334 103.76 4.85707 103.849 4.75902C104.022 4.48905 104.103 4.16979 104.078 3.84993ZM104.129 7.14864C104.162 6.78506 104.077 6.42063 103.885 6.10968C103.792 6.00194 103.675 5.9176 103.543 5.86346C103.411 5.80932 103.269 5.78689 103.127 5.79799H102.477V8.46813H103.127C103.268 8.48034 103.411 8.46 103.543 8.40868C103.675 8.35735 103.794 8.27639 103.89 8.17202C104.08 7.8606 104.164 7.4961 104.129 7.13306" fill="#0055B9"/>
<path d="M109.647 3.33021C109.779 4.82169 109.779 6.32186 109.647 7.81334C109.602 8.18784 109.446 8.54046 109.2 8.82633C109.036 8.99891 108.839 9.13634 108.62 9.23024C108.401 9.32414 108.166 9.37256 107.928 9.37256C107.689 9.37256 107.454 9.32414 107.235 9.23024C107.016 9.13634 106.819 8.99891 106.655 8.82633C106.411 8.5393 106.255 8.18726 106.208 7.81334C106.076 6.32186 106.076 4.82169 106.208 3.33021C106.252 2.94773 106.408 2.58659 106.655 2.29125C106.82 2.12064 107.018 1.98498 107.236 1.89233C107.455 1.79969 107.69 1.75195 107.928 1.75195C108.165 1.75195 108.4 1.79969 108.619 1.89233C108.837 1.98498 109.035 2.12064 109.2 2.29125C109.449 2.58527 109.605 2.94709 109.647 3.33021ZM108.785 7.48606C108.826 7.12242 108.847 6.48867 108.847 5.57957C108.847 4.67048 108.847 4.02112 108.785 3.67307C108.769 3.38822 108.684 3.11162 108.535 2.86788C108.461 2.77844 108.367 2.70648 108.262 2.6571C108.156 2.60772 108.041 2.58213 107.925 2.58213C107.809 2.58213 107.693 2.60772 107.588 2.6571C107.483 2.70648 107.389 2.77844 107.315 2.86788C107.164 3.1106 107.078 3.38779 107.065 3.67307C107.029 4.03151 107.008 4.67048 107.008 5.57957C107.008 6.48867 107.008 7.13801 107.065 7.49126C107.079 7.77638 107.165 8.05336 107.315 8.29645C107.39 8.38431 107.484 8.45483 107.589 8.50316C107.695 8.5515 107.809 8.57651 107.925 8.57651C108.041 8.57651 108.155 8.5515 108.261 8.50316C108.366 8.45483 108.46 8.38431 108.535 8.29645C108.683 8.05074 108.769 7.7725 108.785 7.48606Z" fill="#0055B9"/>
<path d="M114.349 7.45073C114.363 7.72885 114.32 8.00696 114.223 8.26787C114.126 8.52878 113.976 8.76693 113.783 8.96762C113.465 9.24255 113.055 9.38727 112.635 9.37281C112.395 9.38378 112.156 9.34041 111.936 9.24595C111.715 9.15149 111.519 9.00839 111.362 8.82736C111.113 8.53264 110.956 8.17144 110.91 7.7884C110.785 6.3001 110.785 4.80397 110.91 3.31566C110.957 2.93286 111.114 2.5719 111.362 2.2767C111.522 2.10039 111.719 1.96218 111.939 1.87227C112.159 1.78236 112.397 1.74304 112.635 1.75722C112.85 1.74861 113.065 1.78273 113.268 1.85762C113.47 1.93251 113.656 2.04669 113.814 2.19358C113.993 2.39249 114.131 2.62472 114.22 2.87697C114.309 3.12922 114.348 3.39656 114.333 3.66372H113.445C113.456 3.36507 113.372 3.07064 113.206 2.82216C113.132 2.73552 113.04 2.66594 112.936 2.61824C112.833 2.57055 112.72 2.54586 112.606 2.54586C112.492 2.54586 112.379 2.57055 112.276 2.61824C112.172 2.66594 112.08 2.73552 112.006 2.82216C111.856 3.06326 111.77 3.33861 111.757 3.62215C111.72 3.98579 111.7 4.62476 111.7 5.53386C111.7 6.44295 111.7 7.0923 111.757 7.44554C111.773 7.75186 111.871 8.04811 112.042 8.30268C112.117 8.38781 112.21 8.45599 112.313 8.50269C112.417 8.54939 112.529 8.57354 112.642 8.57354C112.756 8.57354 112.868 8.54939 112.972 8.50269C113.075 8.45599 113.167 8.38781 113.242 8.30268C113.404 8.04626 113.487 7.74841 113.481 7.44554L114.349 7.45073Z" fill="#0055B9"/>
<path d="M118.56 2.66188H117.313V9.29046H116.42V2.66188H115.168V1.85669H118.56V2.66188Z" fill="#0055B9"/>
<path d="M122.92 3.33021C123.052 4.82169 123.052 6.32186 122.92 7.81334C122.875 8.18784 122.72 8.54046 122.474 8.82633C122.31 8.99891 122.112 9.13634 121.893 9.23024C121.675 9.32414 121.439 9.37256 121.201 9.37256C120.963 9.37256 120.727 9.32414 120.508 9.23024C120.29 9.13634 120.092 8.99891 119.928 8.82633C119.684 8.5393 119.529 8.18726 119.482 7.81334C119.35 6.32186 119.35 4.82169 119.482 3.33021C119.526 2.94773 119.681 2.58659 119.928 2.29125C120.093 2.12064 120.291 1.98498 120.51 1.89233C120.729 1.79969 120.964 1.75195 121.201 1.75195C121.438 1.75195 121.673 1.79969 121.892 1.89233C122.111 1.98498 122.309 2.12064 122.474 2.29125C122.723 2.58527 122.879 2.94709 122.92 3.33021ZM122.058 7.48606C122.1 7.12242 122.12 6.48867 122.12 5.57957C122.12 4.67048 122.12 4.02112 122.058 3.67307C122.043 3.38822 121.957 3.11162 121.809 2.86788C121.739 2.77425 121.646 2.69925 121.54 2.64944C121.434 2.59963 121.318 2.57653 121.201 2.58216C121.083 2.57616 120.964 2.59904 120.857 2.64881C120.749 2.69857 120.655 2.77376 120.583 2.86788C120.437 3.11218 120.353 3.38871 120.339 3.67307C120.302 4.03151 120.282 4.67048 120.282 5.57957C120.282 6.48867 120.282 7.13801 120.339 7.49126C120.354 7.77548 120.437 8.05181 120.583 8.29645C120.655 8.38996 120.749 8.46438 120.857 8.51326C120.965 8.56214 121.083 8.58402 121.201 8.57697C121.318 8.58365 121.434 8.56156 121.54 8.51264C121.646 8.46372 121.738 8.38947 121.809 8.29645C121.957 8.05074 122.042 7.7725 122.058 7.48606Z" fill="#0055B9"/>
<path d="M127.553 9.29046H126.654V6.61514C126.347 6.66468 126.036 6.68901 125.725 6.68787C125.513 6.70563 125.299 6.68125 125.097 6.61617C124.895 6.55108 124.707 6.44657 124.545 6.30864C124.248 5.94081 124.108 5.47024 124.156 4.99956V1.85669H125.054V4.90604C125.025 5.17774 125.095 5.45081 125.252 5.67488C125.333 5.75029 125.429 5.80813 125.534 5.84478C125.638 5.88143 125.749 5.8961 125.86 5.88787C126.126 5.88698 126.391 5.86614 126.654 5.82553V1.85669H127.553V9.29046Z" fill="#0055B9"/>
<path d="M132.342 9.29046H131.443V5.91902H129.791V9.29046H128.893V1.85669H129.791V5.10345H131.443V1.85669H132.342V9.29046Z" fill="#0055B9"/>
<path d="M136.68 5.44369C136.967 5.95522 137.118 6.53218 137.118 7.11902C137.118 7.70586 136.967 8.28283 136.68 8.79435C136.508 8.96649 136.301 9.09966 136.074 9.18482C135.846 9.26997 135.603 9.30511 135.36 9.28785H133.688V1.85408H134.586V4.97096H135.36C135.603 4.95227 135.847 4.98622 136.076 5.07049C136.305 5.15476 136.512 5.28738 136.685 5.45928L136.68 5.44369ZM136.01 8.18135C136.176 7.86167 136.25 7.5018 136.223 7.14239C136.252 6.78284 136.178 6.42234 136.01 6.10343C135.936 5.99736 135.836 5.91235 135.719 5.85678C135.603 5.80121 135.473 5.777 135.345 5.78655H134.586V8.51383H135.345C135.473 8.52338 135.603 8.49917 135.719 8.4436C135.836 8.38803 135.936 8.30301 136.01 8.19694V8.18135ZM138.701 9.31902H137.802V1.84888H138.701V9.31902Z" fill="#0055B9"/>
<path d="M143.585 9.28889H142.692V4.14603L140.873 9.30448H140.037V1.85512H140.936V7.04993L142.764 1.85512H143.59L143.585 9.28889ZM143.102 0.255127C143.073 0.570155 142.928 0.863102 142.695 1.07642C142.461 1.28974 142.156 1.40801 141.84 1.40801C141.523 1.40801 141.218 1.28974 140.985 1.07642C140.751 0.863102 140.606 0.570155 140.577 0.255127H141.222C141.241 0.405285 141.315 0.543201 141.428 0.643137C141.542 0.743072 141.688 0.798182 141.84 0.798182C141.991 0.798182 142.137 0.743072 142.251 0.643137C142.365 0.543201 142.438 0.405285 142.458 0.255127H143.102Z" fill="#0055B9"/>
<path d="M150.285 7.26386C150.293 7.58223 150.258 7.90019 150.181 8.20932C150.11 8.45217 149.981 8.67464 149.807 8.85867C149.645 9.031 149.446 9.16476 149.224 9.25015C149.003 9.33554 148.766 9.37039 148.53 9.35216C148.092 9.38075 147.66 9.2351 147.33 8.94697C147.147 8.74114 147.007 8.50106 146.918 8.24066C146.828 7.98026 146.792 7.70474 146.81 7.43009H147.709C147.684 7.74638 147.772 8.06114 147.958 8.3184C148.031 8.39596 148.12 8.45663 148.218 8.49612C148.317 8.53561 148.423 8.55297 148.53 8.54698C148.638 8.55421 148.747 8.53749 148.848 8.49799C148.95 8.45849 149.041 8.39718 149.117 8.3184C149.327 7.99738 149.422 7.61471 149.387 7.23269C149.428 6.84072 149.324 6.44719 149.096 6.12619C149.023 6.05386 148.936 5.99719 148.84 5.95967C148.745 5.92215 148.643 5.90458 148.54 5.90802H147.948V5.13398H148.54C148.636 5.13654 148.732 5.11944 148.821 5.08371C148.91 5.04798 148.992 4.99437 149.059 4.92619C149.276 4.61182 149.376 4.23113 149.34 3.85086C149.38 3.47787 149.292 3.1023 149.091 2.78593C149.017 2.70732 148.928 2.64565 148.828 2.60527C148.729 2.56489 148.621 2.54677 148.514 2.55216C148.409 2.54765 148.304 2.56625 148.207 2.60665C148.11 2.64704 148.024 2.70825 147.953 2.78593C147.759 3.03759 147.667 3.35257 147.693 3.66904H146.794C146.774 3.13071 146.96 2.60488 147.314 2.19892C147.659 1.90368 148.099 1.74146 148.553 1.74146C149.007 1.74146 149.447 1.90368 149.792 2.19892C149.975 2.37838 150.104 2.60494 150.166 2.85347C150.235 3.16369 150.267 3.48114 150.259 3.79891C150.289 4.24655 150.177 4.69219 149.937 5.07165C149.796 5.2429 149.618 5.38118 149.418 5.47684C149.617 5.57301 149.794 5.70918 149.937 5.87684C150.202 6.28085 150.323 6.76209 150.28 7.24307" fill="#0055B9"/>
<path d="M155.334 9.29046H154.389L154.031 7.53461H152.311L151.953 9.29046H151.002L152.737 1.85669H153.599L155.334 9.29046ZM153.864 6.74501L153.173 3.32163L152.477 6.74501H153.864Z" fill="#0055B9"/>
<path d="M159.729 7.20033C159.741 7.54144 159.704 7.88244 159.62 8.21331C159.548 8.44719 159.422 8.66075 159.251 8.8367C159.065 9.00066 158.848 9.12524 158.612 9.20291C158.376 9.28058 158.127 9.30974 157.88 9.28864H156.285V1.85487H157.88C158.125 1.83508 158.372 1.8644 158.606 1.94111C158.839 2.01782 159.055 2.1404 159.241 2.30163C159.397 2.46652 159.513 2.66579 159.579 2.88345C159.655 3.18544 159.688 3.49678 159.677 3.80812C159.697 4.0469 159.669 4.28722 159.594 4.51479C159.519 4.74235 159.399 4.95252 159.241 5.13279C159.12 5.25297 158.978 5.34829 158.82 5.41332C158.994 5.46548 159.152 5.55806 159.283 5.68344C159.457 5.85244 159.581 6.06642 159.641 6.30163C159.705 6.59678 159.735 6.89836 159.729 7.20033ZM158.794 3.84968C158.825 3.52585 158.748 3.20089 158.576 2.925C158.483 2.82955 158.37 2.75619 158.245 2.71033C158.12 2.66447 157.987 2.6473 157.854 2.66008H157.184V5.03929H157.838C157.971 5.05004 158.103 5.03034 158.227 4.98171C158.35 4.93308 158.461 4.85681 158.55 4.75877C158.723 4.4888 158.804 4.16953 158.779 3.84968H158.794ZM158.831 7.14838C158.863 6.7848 158.778 6.42037 158.586 6.10942C158.493 6.00168 158.376 5.91734 158.244 5.8632C158.113 5.80906 157.97 5.78664 157.828 5.79773H157.184V8.46787H157.828C157.969 8.48008 158.112 8.45974 158.244 8.40842C158.377 8.35709 158.495 8.27614 158.592 8.17176C158.781 7.86034 158.865 7.49584 158.831 7.1328" fill="#0055B9"/>
<path d="M164.349 3.33021C164.48 4.82169 164.48 6.32186 164.349 7.81334C164.304 8.18784 164.148 8.54046 163.902 8.82633C163.738 8.99891 163.541 9.13634 163.322 9.23024C163.103 9.32414 162.867 9.37256 162.629 9.37256C162.391 9.37256 162.156 9.32414 161.937 9.23024C161.718 9.13634 161.521 8.99891 161.357 8.82633C161.112 8.54 160.958 8.18735 160.915 7.81334C160.784 6.32186 160.784 4.82169 160.915 3.33021C160.956 2.94766 161.109 2.5859 161.357 2.29125C161.522 2.12064 161.72 1.98498 161.938 1.89233C162.157 1.79969 162.392 1.75195 162.629 1.75195C162.867 1.75195 163.102 1.79969 163.321 1.89233C163.539 1.98498 163.737 2.12064 163.902 2.29125C164.151 2.58527 164.307 2.94709 164.349 3.33021ZM163.487 7.48606C163.528 7.12242 163.549 6.48867 163.549 5.57957C163.549 4.67048 163.549 4.02112 163.487 3.67307C163.471 3.38822 163.385 3.11162 163.237 2.86788C163.163 2.77844 163.069 2.70648 162.964 2.6571C162.858 2.60772 162.743 2.58213 162.627 2.58213C162.51 2.58213 162.395 2.60772 162.29 2.6571C162.184 2.70648 162.091 2.77844 162.016 2.86788C161.868 3.11162 161.782 3.38822 161.767 3.67307C161.731 4.03151 161.71 4.67048 161.71 5.57957C161.71 6.48867 161.71 7.13801 161.767 7.49126C161.783 7.77596 161.869 8.05237 162.016 8.29645C162.092 8.38431 162.186 8.45483 162.291 8.50316C162.396 8.5515 162.511 8.57651 162.627 8.57651C162.743 8.57651 162.857 8.5515 162.963 8.50316C163.068 8.45483 163.162 8.38431 163.237 8.29645C163.385 8.05074 163.471 7.7725 163.487 7.48606Z" fill="#0055B9"/>
<path d="M170.001 10.6151H169.143V9.29039H166.068V10.6151H165.211V8.4852H165.684C166.099 7.31854 166.303 6.08714 166.286 4.84883V1.86182H169.403V8.49038H169.99L170.001 10.6151ZM168.515 8.4852V2.66182H167.169V5.04104C167.191 6.21307 167.003 7.37956 166.614 8.4852H168.515Z" fill="#0055B9"/>
</svg>
